#!OML:ASF H:\Terrain\Patient Classification 1\Animal2\Wednesday\Animal2.ASF
:FULLY-SPECIFIED
:DEGREES
1924
root 13.225 16.9176 0.163032 20.3613 -136.801 -3.96201
lowerback 16.2075 -1.24683 -2.95777
upperback -9.27655 -3.22343 -2.24334
thorax -20.2052 -1.3794 0.116045
lowerneck 10.4498 8.72059 16.3283
upperneck -20.6958 11.0942 -18.3589
head -5.75792 5.65031 -9.47271
rclavicle -3.58309e-014 -3.73715e-014
rhumerus -43.6199 -2.13053 -86.0974
rradius 79.8252
rwrist -1.84585
rhand -6.11324 5.49801
rfingers 7.12502
rthumb 19.7235 -23.5214
lclavicle -3.58309e-014 -3.73715e-014
lhumerus -34.2411 -8.426 71.2457
lradius 91.8959
lwrist 10.0933
lhand -11.4089 28.5513
lfingers 7.12502
lthumb 14.6266 58.0154
rfemur -60.3691 -4.95585 14.9103
rtibia 79.099
rfoot -9.52159 -8.02913
rtoes 28.0865
lfemur -40.185 -3.45164 -21.3687
ltibia 49.4187
lfoot -25.8252 -3.08567
ltoes -12.6534
1925
root 13.1631 16.8931 0.0656005 20.8226 -137.401 -3.70467
lowerback 15.6734 -1.03272 -3.29825
upperback -9.33636 -2.9705 -2.10945
thorax -19.8987 -1.21954 0.370327
lowerneck 10.3048 8.88637 16.1929
upperneck -21.3818 11.178 -18.4018
head -5.93012 5.66455 -9.50331
rclavicle 2.0773e-014 -5.80451e-014
rhumerus -44.1782 -2.5471 -85.6123
rradius 80.6166
rwrist -2.45877
rhand -6.40064 4.1801
rfingers 7.12502
rthumb 19.4472 -24.8674
lclavicle 2.0773e-014 -5.80451e-014
lhumerus -32.8943 -7.68486 71.2701
lradius 92.2166
lwrist 10.4853
lhand -12.6816 28.8692
lfingers 7.12502
lthumb 13.4001 58.4183
rfemur -61.5758 -3.85518 14.5186
rtibia 77.523
rfoot -10.4528 -8.69204
rtoes 32.4613
lfemur -40.5463 -3.0446 -21.245
ltibia 49.6828
lfoot -26.2206 -3.07141
ltoes -11.4692
1926
root 13.085 16.8938 -0.0429254 20.7484 -137.074 -3.72415
lowerback 15.8773 -1.2862 -3.29219
upperback -9.14436 -3.25543 -1.90488
thorax -19.7571 -1.31434 0.702491
lowerneck 10.0707 9.22974 15.8753
upperneck -22.0204 11.4691 -18.4104
head -6.04886 5.78763 -9.48032
rclavicle 6.88292e-014 1.27222e-014
rhumerus -44.6012 -2.53404 -85.3272
rradius 81.4992
rwrist -3.24978
rhand -6.84271 2.68532
rfingers 7.12502
rthumb 19.0221 -26.4045
lclavicle 6.88292e-014 1.27222e-014
lhumerus -31.8801 -6.42047 71.2463
lradius 92.7948
lwrist 10.7862
lhand -13.6844 29.0342
lfingers 7.12502
lthumb 12.4334 58.6444
rfemur -61.3315 -3.74839 14.2886
rtibia 75.6345
rfoot -11.3199 -9.79188
rtoes 32.1768
lfemur -39.8939 -3.39358 -21.0885
ltibia 49.6822
lfoot -26.5897 -3.27059
ltoes -10.7204
1927
root 13.0107 16.8869 -0.147407 21.0936 -136.734 -3.60747
lowerback 15.819 -1.49075 -3.11948
upperback -9.3746 -3.49387 -1.74703
thorax -20.014 -1.42517 0.87136
lowerneck 10.44 9.34315 16.2005
upperneck -22.4622 11.6488 -18.7005
head -6.17006 5.87313 -9.6912
rclavicle -9.74045e-015 4.05521e-014
rhumerus -45.5979 -2.71812 -85.0348
rradius 82.5346
rwrist -3.91966
rhand -7.41464 1.4979
rfingers 7.12502
rthumb 18.472 -27.6451
lclavicle -9.74045e-015 4.05521e-014
lhumerus -31.5618 -5.36221 71.2375
lradius 93.5695
lwrist 10.6619
lhand -13.427 28.4748
lfingers 7.12502
lthumb 12.6815 58.0697
rfemur -61.7215 -3.62521 14.1841
rtibia 73.6494
rfoot -12.0288 -10.7234
rtoes 30.7241
lfemur -39.862 -3.7415 -20.7902
ltibia 49.6028
lfoot -26.8115 -3.11535
ltoes -11.3707
1928
root 12.9388 16.9056 -0.261214 21.0849 -136.728 -3.34909
lowerback 16.0192 -1.5084 -3.0863
upperback -9.55354 -3.51919 -1.62372
thorax -20.3828 -1.42106 1.01875
lowerneck 11.0041 9.30594 16.5166
upperneck -23.0237 11.6551 -18.9108
head -6.40476 5.86894 -9.90506
rclavicle 3.4191e-014 3.18055e-014
rhumerus -46.6748 -3.00953 -84.7133
rradius 83.4607
rwrist -3.99413
rhand -7.83295 0.797917
rfingers 7.12502
rthumb 18.0696 -28.3827
lclavicle 3.4191e-014 3.18055e-014
lhumerus -31.5467 -4.54063 71.2603
lradius 94.4655
lwrist 10.65
lhand -13.3134 27.9999
lfingers 7.12502
lthumb 12.7911 57.5881
rfemur -61.7176 -3.08922 14.057
rtibia 71.4481
rfoot -12.8042 -11.1024
rtoes 33.1351
lfemur -39.3198 -3.72852 -20.4898
ltibia 49.2418
lfoot -27.0156 -3.14671
ltoes -11.4764
1929
root 12.8635 16.949 -0.384553 21.0055 -136.607 -3.14452
lowerback 16.1664 -1.73195 -3.01643
upperback -9.57679 -3.7682 -1.37721
thorax -20.4887 -1.50467 1.36038
lowerneck 11.3125 9.54593 16.2539
upperneck -23.7686 11.8891 -18.9484
head -6.66242 5.98042 -9.9602
rclavicle -1.1281e-014 -8.74653e-015
rhumerus -47.3712 -2.77569 -84.5754
rradius 84.1102
rwrist -3.7043
rhand -8.15684 0.745588
rfingers 7.12502
rthumb 17.7579 -28.4636
lclavicle -1.1281e-014 -8.74653e-015
lhumerus -31.6483 -3.2388 71.2395
lradius 95.4049
lwrist 11.0158
lhand -14.1718 28.132
lfingers 7.12502
lthumb 11.9635 57.7701
rfemur -61.37 -2.70832 13.9714
rtibia 69.0754
rfoot -13.2823 -11.382
rtoes 34.3466
lfemur -38.5323 -3.82583 -20.1845
ltibia 48.7195
lfoot -27.2221 -3.15142
ltoes -11.396
